<svg xmlns="http://www.w3.org/2000/svg" width="1200" height="800" viewBox="0 0 1200 800" role="img" aria-labelledby="title desc" data-pixelfit-sample="true">
<title id="title">필름사진 빛샘 효과 결과 예시</title>
<desc id="desc">동일한 직접 제작 추상 풍경에 빛샘 효과 설정을 표현한 비교 결과입니다.</desc>
<rect width="1200" height="800" rx="28" fill="#fbfaf7"/>
<defs><linearGradient id="scene-film-light-leak-sky" x1="0" y1="0" x2="1" y2="1"><stop stop-color="#709fce"/><stop offset="1" stop-color="#b7d6d0"/></linearGradient><linearGradient id="scene-film-light-leak-ground" x1="0" y1="0" x2="1" y2="0"><stop stop-color="#d98962"/><stop offset="1" stop-color="#efc267"/></linearGradient></defs><rect width="1200" height="800" fill="url(#scene-film-light-leak-sky)"/><circle cx="936" cy="176" r="80" fill="#ffe79b"/><path d="M0 560 L240 344 L432 520 L672.0000000000001 288 L936 544 L1200 384 V800 H0Z" fill="#356a66" opacity=".82"/><path d="M0 600 Q336.00000000000006 455.99999999999994 624 624 T1200 536 V800 H0Z" fill="url(#scene-film-light-leak-ground)"/><path d="M216 528 C372 432,576 416,827.9999999999999 560" fill="none" stroke="#fff8dc" stroke-width="19.2" stroke-linecap="round" opacity=".72"/><circle cx="320" cy="495" r="1" fill="#14213d" opacity=".16"/><circle cx="403" cy="542" r="2" fill="#ffffff" opacity=".16"/><circle cx="486" cy="589" r="3" fill="#14213d" opacity=".16"/><circle cx="569" cy="636" r="1" fill="#ffffff" opacity=".16"/><circle cx="652" cy="683" r="2" fill="#14213d" opacity=".16"/><circle cx="735" cy="730" r="3" fill="#ffffff" opacity=".16"/><circle cx="818" cy="37" r="1" fill="#14213d" opacity=".16"/><circle cx="901" cy="84" r="2" fill="#ffffff" opacity=".16"/><circle cx="984" cy="131" r="3" fill="#14213d" opacity=".16"/><circle cx="1067" cy="178" r="1" fill="#ffffff" opacity=".16"/><circle cx="1150" cy="225" r="2" fill="#14213d" opacity=".16"/><circle cx="103" cy="272" r="3" fill="#ffffff" opacity=".16"/><circle cx="186" cy="319" r="1" fill="#14213d" opacity=".16"/><circle cx="269" cy="366" r="2" fill="#ffffff" opacity=".16"/><circle cx="352" cy="413" r="3" fill="#14213d" opacity=".16"/><circle cx="435" cy="460" r="1" fill="#ffffff" opacity=".16"/><circle cx="518" cy="507" r="2" fill="#14213d" opacity=".16"/><circle cx="601" cy="554" r="3" fill="#ffffff" opacity=".16"/><circle cx="684" cy="601" r="1" fill="#14213d" opacity=".16"/><circle cx="767" cy="648" r="2" fill="#ffffff" opacity=".16"/><circle cx="850" cy="695" r="3" fill="#14213d" opacity=".16"/><circle cx="933" cy="742" r="1" fill="#ffffff" opacity=".16"/><circle cx="1016" cy="49" r="2" fill="#14213d" opacity=".16"/><circle cx="1099" cy="96" r="3" fill="#ffffff" opacity=".16"/><circle cx="52" cy="143" r="1" fill="#14213d" opacity=".16"/><circle cx="135" cy="190" r="2" fill="#ffffff" opacity=".16"/>
<rect x="26" y="26" width="1148" height="748" rx="28" fill="none" stroke="#fbfaf7" stroke-width="12" opacity=".82"/>
<rect x="54" y="590" width="520" height="126" rx="24" fill="#14213d" opacity=".76"/>
<text x="88" y="650" text-anchor="start" font-family="Pretendard,Apple SD Gothic Neo,sans-serif" font-size="40" font-weight="800" fill="#ffffff" opacity="1">빛샘 효과</text>
<text x="90" y="692" text-anchor="start" font-family="Pretendard,Apple SD Gothic Neo,sans-serif" font-size="22" font-weight="650" fill="#dfe9e8" opacity="1">따뜻한 빛샘 · 같은 설정의 그레인 · 비네팅</text>
<defs><clipPath id="film-light-leak-weak"><rect width="600" height="800"/></clipPath><clipPath id="film-light-leak-strong"><rect x="600" width="600" height="800"/></clipPath></defs>
<g clip-path="url(#film-light-leak-weak)"><ellipse cx="570" cy="210" rx="190" ry="430" fill="#ff8c5e" opacity=".2"/><ellipse cx="600" cy="178" rx="90" ry="320" fill="#ffe177" opacity=".16"/></g>
<g clip-path="url(#film-light-leak-strong)"><ellipse cx="1120" cy="210" rx="300" ry="500" fill="#ff765e" opacity=".48"/><ellipse cx="1160" cy="178" rx="140" ry="370" fill="#ffe177" opacity=".34"/></g>
<circle cx="332" cy="448" r="2.4" fill="#fff" opacity="0.28"/><circle cx="489" cy="545" r="1.2" fill="#fff" opacity="0.16"/><circle cx="646" cy="642" r="1.2" fill="#fff" opacity="0.16"/><circle cx="803" cy="739" r="1.2" fill="#fff" opacity="0.28"/><circle cx="960" cy="86" r="2.4" fill="#fff" opacity="0.16"/><circle cx="1117" cy="183" r="1.2" fill="#fff" opacity="0.16"/><circle cx="124" cy="280" r="1.2" fill="#fff" opacity="0.28"/><circle cx="281" cy="377" r="1.2" fill="#fff" opacity="0.16"/><circle cx="438" cy="474" r="2.4" fill="#fff" opacity="0.16"/><circle cx="595" cy="571" r="1.2" fill="#fff" opacity="0.28"/><circle cx="752" cy="668" r="1.2" fill="#fff" opacity="0.16"/><circle cx="909" cy="765" r="1.2" fill="#fff" opacity="0.16"/><circle cx="1066" cy="112" r="2.4" fill="#fff" opacity="0.28"/><circle cx="73" cy="209" r="1.2" fill="#fff" opacity="0.16"/><circle cx="230" cy="306" r="1.2" fill="#fff" opacity="0.16"/><circle cx="387" cy="403" r="1.2" fill="#fff" opacity="0.28"/><circle cx="544" cy="500" r="2.4" fill="#fff" opacity="0.16"/><circle cx="701" cy="597" r="1.2" fill="#fff" opacity="0.16"/><circle cx="858" cy="694" r="1.2" fill="#fff" opacity="0.28"/><circle cx="1015" cy="41" r="1.2" fill="#fff" opacity="0.16"/><circle cx="22" cy="138" r="2.4" fill="#fff" opacity="0.16"/><circle cx="179" cy="235" r="1.2" fill="#fff" opacity="0.28"/><circle cx="336" cy="332" r="1.2" fill="#fff" opacity="0.16"/><circle cx="493" cy="429" r="1.2" fill="#fff" opacity="0.16"/><circle cx="650" cy="526" r="2.4" fill="#fff" opacity="0.28"/><circle cx="807" cy="623" r="1.2" fill="#fff" opacity="0.16"/><circle cx="964" cy="720" r="1.2" fill="#fff" opacity="0.16"/><circle cx="1121" cy="67" r="1.2" fill="#fff" opacity="0.28"/><circle cx="128" cy="164" r="2.4" fill="#fff" opacity="0.16"/><circle cx="285" cy="261" r="1.2" fill="#fff" opacity="0.16"/><circle cx="442" cy="358" r="1.2" fill="#fff" opacity="0.28"/><circle cx="599" cy="455" r="1.2" fill="#fff" opacity="0.16"/><circle cx="756" cy="552" r="2.4" fill="#fff" opacity="0.16"/><circle cx="913" cy="649" r="1.2" fill="#fff" opacity="0.28"/><circle cx="1070" cy="746" r="1.2" fill="#fff" opacity="0.16"/><circle cx="77" cy="93" r="1.2" fill="#fff" opacity="0.16"/><circle cx="234" cy="190" r="2.4" fill="#fff" opacity="0.28"/><circle cx="391" cy="287" r="1.2" fill="#fff" opacity="0.16"/><circle cx="548" cy="384" r="1.2" fill="#fff" opacity="0.16"/><circle cx="705" cy="481" r="1.2" fill="#fff" opacity="0.28"/><circle cx="862" cy="578" r="2.4" fill="#fff" opacity="0.16"/><circle cx="1019" cy="675" r="1.2" fill="#fff" opacity="0.16"/><circle cx="26" cy="22" r="1.2" fill="#fff" opacity="0.28"/><circle cx="183" cy="119" r="1.2" fill="#fff" opacity="0.16"/><circle cx="340" cy="216" r="2.4" fill="#fff" opacity="0.16"/><circle cx="497" cy="313" r="1.2" fill="#fff" opacity="0.28"/><circle cx="654" cy="410" r="1.2" fill="#fff" opacity="0.16"/><circle cx="811" cy="507" r="1.2" fill="#fff" opacity="0.16"/><circle cx="968" cy="604" r="2.4" fill="#fff" opacity="0.28"/><circle cx="1125" cy="701" r="1.2" fill="#fff" opacity="0.16"/><circle cx="132" cy="48" r="1.2" fill="#fff" opacity="0.16"/><circle cx="289" cy="145" r="1.2" fill="#fff" opacity="0.28"/><circle cx="446" cy="242" r="2.4" fill="#fff" opacity="0.16"/><circle cx="603" cy="339" r="1.2" fill="#fff" opacity="0.16"/><circle cx="760" cy="436" r="1.2" fill="#fff" opacity="0.28"/><circle cx="917" cy="533" r="1.2" fill="#fff" opacity="0.16"/><circle cx="1074" cy="630" r="2.4" fill="#fff" opacity="0.16"/><circle cx="81" cy="727" r="1.2" fill="#fff" opacity="0.28"/><circle cx="238" cy="74" r="1.2" fill="#fff" opacity="0.16"/><circle cx="395" cy="171" r="1.2" fill="#fff" opacity="0.16"/><circle cx="552" cy="268" r="2.4" fill="#fff" opacity="0.28"/><circle cx="709" cy="365" r="1.2" fill="#fff" opacity="0.16"/><circle cx="866" cy="462" r="1.2" fill="#fff" opacity="0.16"/><circle cx="1023" cy="559" r="1.2" fill="#fff" opacity="0.28"/>
<line x1="600" y1="42" x2="600" y2="758" stroke="#fbfaf7" stroke-width="5" opacity=".86"/>
<rect x="72" y="68" width="150" height="54" rx="27" fill="#14213d" opacity=".72"/>
<rect x="978" y="68" width="150" height="54" rx="27" fill="#14213d" opacity=".72"/>
<text x="147" y="105" text-anchor="middle" font-family="Pretendard,Apple SD Gothic Neo,sans-serif" font-size="24" font-weight="800" fill="#ffffff" opacity="1">약하게</text>
<text x="1053" y="105" text-anchor="middle" font-family="Pretendard,Apple SD Gothic Neo,sans-serif" font-size="24" font-weight="800" fill="#ffffff" opacity="1">강하게</text>
</svg>
