<svg xmlns="http://www.w3.org/2000/svg" width="1200" height="800" viewBox="0 0 1200 800" role="img" aria-labelledby="title desc" data-pixelfit-sample="true">
<title id="title">네컷사진 가로 코랄 프레임 예시</title>
<desc id="desc">직접 만든 추상 풍경 네 장을 가로 코랄 프레임 레이아웃으로 배치한 결과 예시입니다.</desc>
<rect width="1200" height="800" rx="28" fill="#fbfaf7"/>
<rect x="32" y="32" width="1136" height="736" rx="30" fill="#ffd5ce"/>
<g transform="translate(70 70)"><defs><linearGradient id="scene-horizontal-coral-0-sky" x1="0" y1="0" x2="1" y2="1"><stop stop-color="#709fce"/><stop offset="1" stop-color="#b7d6d0"/></linearGradient><linearGradient id="scene-horizontal-coral-0-ground" x1="0" y1="0" x2="1" y2="0"><stop stop-color="#d98962"/><stop offset="1" stop-color="#efc267"/></linearGradient></defs><rect width="506" height="302" fill="url(#scene-horizontal-coral-0-sky)"/><circle cx="394.68" cy="66.44" r="30.200000000000003" fill="#ffe79b"/><path d="M0 211.39999999999998 L101.2 129.85999999999999 L182.16 196.3 L283.36 108.72 L394.68 205.36 L506 144.96 V302 H0Z" fill="#356a66" opacity=".82"/><path d="M0 226.5 Q141.68 172.14 263.12 235.56 T506 202.34 V302 H0Z" fill="url(#scene-horizontal-coral-0-ground)"/><path d="M91.08 199.32000000000002 C156.85999999999999 163.08,242.88 157.04,349.14 211.39999999999998" fill="none" stroke="#fff8dc" stroke-width="8.096" stroke-linecap="round" opacity=".72"/><circle cx="377" cy="104" r="1" fill="#14213d" opacity=".16"/><circle cx="460" cy="151" r="2" fill="#ffffff" opacity=".16"/><circle cx="107" cy="198" r="3" fill="#14213d" opacity=".16"/><circle cx="190" cy="245" r="1" fill="#ffffff" opacity=".16"/><circle cx="273" cy="50" r="2" fill="#14213d" opacity=".16"/><circle cx="356" cy="97" r="3" fill="#ffffff" opacity=".16"/><circle cx="439" cy="144" r="1" fill="#14213d" opacity=".16"/><circle cx="86" cy="191" r="2" fill="#ffffff" opacity=".16"/><circle cx="169" cy="238" r="3" fill="#14213d" opacity=".16"/><circle cx="252" cy="43" r="1" fill="#ffffff" opacity=".16"/><circle cx="335" cy="90" r="2" fill="#14213d" opacity=".16"/><circle cx="418" cy="137" r="3" fill="#ffffff" opacity=".16"/><circle cx="65" cy="184" r="1" fill="#14213d" opacity=".16"/><circle cx="148" cy="231" r="2" fill="#ffffff" opacity=".16"/><circle cx="231" cy="36" r="3" fill="#14213d" opacity=".16"/><circle cx="314" cy="83" r="1" fill="#ffffff" opacity=".16"/><circle cx="397" cy="130" r="2" fill="#14213d" opacity=".16"/><circle cx="44" cy="177" r="3" fill="#ffffff" opacity=".16"/><circle cx="127" cy="224" r="1" fill="#14213d" opacity=".16"/><circle cx="210" cy="271" r="2" fill="#ffffff" opacity=".16"/><circle cx="293" cy="76" r="3" fill="#14213d" opacity=".16"/><circle cx="376" cy="123" r="1" fill="#ffffff" opacity=".16"/><circle cx="459" cy="170" r="2" fill="#14213d" opacity=".16"/><circle cx="106" cy="217" r="3" fill="#ffffff" opacity=".16"/><circle cx="189" cy="264" r="1" fill="#14213d" opacity=".16"/><circle cx="272" cy="69" r="2" fill="#ffffff" opacity=".16"/><rect width="506" height="302" fill="none" stroke="#ffffff" stroke-width="8"/></g>
<g transform="translate(600 70)"><defs><linearGradient id="scene-horizontal-coral-1-sky" x1="0" y1="0" x2="1" y2="1"><stop stop-color="#709fce"/><stop offset="1" stop-color="#b7d6d0"/></linearGradient><linearGradient id="scene-horizontal-coral-1-ground" x1="0" y1="0" x2="1" y2="0"><stop stop-color="#d98962"/><stop offset="1" stop-color="#efc267"/></linearGradient></defs><rect width="506" height="302" fill="url(#scene-horizontal-coral-1-sky)"/><circle cx="394.68" cy="66.44" r="30.200000000000003" fill="#ffe79b"/><path d="M0 211.39999999999998 L101.2 129.85999999999999 L182.16 196.3 L283.36 108.72 L394.68 205.36 L506 144.96 V302 H0Z" fill="#356a66" opacity=".82"/><path d="M0 226.5 Q141.68 172.14 263.12 235.56 T506 202.34 V302 H0Z" fill="url(#scene-horizontal-coral-1-ground)"/><path d="M91.08 199.32000000000002 C156.85999999999999 163.08,242.88 157.04,349.14 211.39999999999998" fill="none" stroke="#fff8dc" stroke-width="8.096" stroke-linecap="round" opacity=".72"/><circle cx="377" cy="104" r="1" fill="#14213d" opacity=".16"/><circle cx="460" cy="151" r="2" fill="#ffffff" opacity=".16"/><circle cx="107" cy="198" r="3" fill="#14213d" opacity=".16"/><circle cx="190" cy="245" r="1" fill="#ffffff" opacity=".16"/><circle cx="273" cy="50" r="2" fill="#14213d" opacity=".16"/><circle cx="356" cy="97" r="3" fill="#ffffff" opacity=".16"/><circle cx="439" cy="144" r="1" fill="#14213d" opacity=".16"/><circle cx="86" cy="191" r="2" fill="#ffffff" opacity=".16"/><circle cx="169" cy="238" r="3" fill="#14213d" opacity=".16"/><circle cx="252" cy="43" r="1" fill="#ffffff" opacity=".16"/><circle cx="335" cy="90" r="2" fill="#14213d" opacity=".16"/><circle cx="418" cy="137" r="3" fill="#ffffff" opacity=".16"/><circle cx="65" cy="184" r="1" fill="#14213d" opacity=".16"/><circle cx="148" cy="231" r="2" fill="#ffffff" opacity=".16"/><circle cx="231" cy="36" r="3" fill="#14213d" opacity=".16"/><circle cx="314" cy="83" r="1" fill="#ffffff" opacity=".16"/><circle cx="397" cy="130" r="2" fill="#14213d" opacity=".16"/><circle cx="44" cy="177" r="3" fill="#ffffff" opacity=".16"/><circle cx="127" cy="224" r="1" fill="#14213d" opacity=".16"/><circle cx="210" cy="271" r="2" fill="#ffffff" opacity=".16"/><circle cx="293" cy="76" r="3" fill="#14213d" opacity=".16"/><circle cx="376" cy="123" r="1" fill="#ffffff" opacity=".16"/><circle cx="459" cy="170" r="2" fill="#14213d" opacity=".16"/><circle cx="106" cy="217" r="3" fill="#ffffff" opacity=".16"/><circle cx="189" cy="264" r="1" fill="#14213d" opacity=".16"/><circle cx="272" cy="69" r="2" fill="#ffffff" opacity=".16"/><rect width="506" height="302" fill="none" stroke="#ffffff" stroke-width="8"/></g>
<g transform="translate(70 396)"><defs><linearGradient id="scene-horizontal-coral-2-sky" x1="0" y1="0" x2="1" y2="1"><stop stop-color="#709fce"/><stop offset="1" stop-color="#b7d6d0"/></linearGradient><linearGradient id="scene-horizontal-coral-2-ground" x1="0" y1="0" x2="1" y2="0"><stop stop-color="#d98962"/><stop offset="1" stop-color="#efc267"/></linearGradient></defs><rect width="506" height="302" fill="url(#scene-horizontal-coral-2-sky)"/><circle cx="394.68" cy="66.44" r="30.200000000000003" fill="#ffe79b"/><path d="M0 211.39999999999998 L101.2 129.85999999999999 L182.16 196.3 L283.36 108.72 L394.68 205.36 L506 144.96 V302 H0Z" fill="#356a66" opacity=".82"/><path d="M0 226.5 Q141.68 172.14 263.12 235.56 T506 202.34 V302 H0Z" fill="url(#scene-horizontal-coral-2-ground)"/><path d="M91.08 199.32000000000002 C156.85999999999999 163.08,242.88 157.04,349.14 211.39999999999998" fill="none" stroke="#fff8dc" stroke-width="8.096" stroke-linecap="round" opacity=".72"/><circle cx="377" cy="104" r="1" fill="#14213d" opacity=".16"/><circle cx="460" cy="151" r="2" fill="#ffffff" opacity=".16"/><circle cx="107" cy="198" r="3" fill="#14213d" opacity=".16"/><circle cx="190" cy="245" r="1" fill="#ffffff" opacity=".16"/><circle cx="273" cy="50" r="2" fill="#14213d" opacity=".16"/><circle cx="356" cy="97" r="3" fill="#ffffff" opacity=".16"/><circle cx="439" cy="144" r="1" fill="#14213d" opacity=".16"/><circle cx="86" cy="191" r="2" fill="#ffffff" opacity=".16"/><circle cx="169" cy="238" r="3" fill="#14213d" opacity=".16"/><circle cx="252" cy="43" r="1" fill="#ffffff" opacity=".16"/><circle cx="335" cy="90" r="2" fill="#14213d" opacity=".16"/><circle cx="418" cy="137" r="3" fill="#ffffff" opacity=".16"/><circle cx="65" cy="184" r="1" fill="#14213d" opacity=".16"/><circle cx="148" cy="231" r="2" fill="#ffffff" opacity=".16"/><circle cx="231" cy="36" r="3" fill="#14213d" opacity=".16"/><circle cx="314" cy="83" r="1" fill="#ffffff" opacity=".16"/><circle cx="397" cy="130" r="2" fill="#14213d" opacity=".16"/><circle cx="44" cy="177" r="3" fill="#ffffff" opacity=".16"/><circle cx="127" cy="224" r="1" fill="#14213d" opacity=".16"/><circle cx="210" cy="271" r="2" fill="#ffffff" opacity=".16"/><circle cx="293" cy="76" r="3" fill="#14213d" opacity=".16"/><circle cx="376" cy="123" r="1" fill="#ffffff" opacity=".16"/><circle cx="459" cy="170" r="2" fill="#14213d" opacity=".16"/><circle cx="106" cy="217" r="3" fill="#ffffff" opacity=".16"/><circle cx="189" cy="264" r="1" fill="#14213d" opacity=".16"/><circle cx="272" cy="69" r="2" fill="#ffffff" opacity=".16"/><rect width="506" height="302" fill="none" stroke="#ffffff" stroke-width="8"/></g>
<g transform="translate(600 396)"><defs><linearGradient id="scene-horizontal-coral-3-sky" x1="0" y1="0" x2="1" y2="1"><stop stop-color="#709fce"/><stop offset="1" stop-color="#b7d6d0"/></linearGradient><linearGradient id="scene-horizontal-coral-3-ground" x1="0" y1="0" x2="1" y2="0"><stop stop-color="#d98962"/><stop offset="1" stop-color="#efc267"/></linearGradient></defs><rect width="506" height="302" fill="url(#scene-horizontal-coral-3-sky)"/><circle cx="394.68" cy="66.44" r="30.200000000000003" fill="#ffe79b"/><path d="M0 211.39999999999998 L101.2 129.85999999999999 L182.16 196.3 L283.36 108.72 L394.68 205.36 L506 144.96 V302 H0Z" fill="#356a66" opacity=".82"/><path d="M0 226.5 Q141.68 172.14 263.12 235.56 T506 202.34 V302 H0Z" fill="url(#scene-horizontal-coral-3-ground)"/><path d="M91.08 199.32000000000002 C156.85999999999999 163.08,242.88 157.04,349.14 211.39999999999998" fill="none" stroke="#fff8dc" stroke-width="8.096" stroke-linecap="round" opacity=".72"/><circle cx="377" cy="104" r="1" fill="#14213d" opacity=".16"/><circle cx="460" cy="151" r="2" fill="#ffffff" opacity=".16"/><circle cx="107" cy="198" r="3" fill="#14213d" opacity=".16"/><circle cx="190" cy="245" r="1" fill="#ffffff" opacity=".16"/><circle cx="273" cy="50" r="2" fill="#14213d" opacity=".16"/><circle cx="356" cy="97" r="3" fill="#ffffff" opacity=".16"/><circle cx="439" cy="144" r="1" fill="#14213d" opacity=".16"/><circle cx="86" cy="191" r="2" fill="#ffffff" opacity=".16"/><circle cx="169" cy="238" r="3" fill="#14213d" opacity=".16"/><circle cx="252" cy="43" r="1" fill="#ffffff" opacity=".16"/><circle cx="335" cy="90" r="2" fill="#14213d" opacity=".16"/><circle cx="418" cy="137" r="3" fill="#ffffff" opacity=".16"/><circle cx="65" cy="184" r="1" fill="#14213d" opacity=".16"/><circle cx="148" cy="231" r="2" fill="#ffffff" opacity=".16"/><circle cx="231" cy="36" r="3" fill="#14213d" opacity=".16"/><circle cx="314" cy="83" r="1" fill="#ffffff" opacity=".16"/><circle cx="397" cy="130" r="2" fill="#14213d" opacity=".16"/><circle cx="44" cy="177" r="3" fill="#ffffff" opacity=".16"/><circle cx="127" cy="224" r="1" fill="#14213d" opacity=".16"/><circle cx="210" cy="271" r="2" fill="#ffffff" opacity=".16"/><circle cx="293" cy="76" r="3" fill="#14213d" opacity=".16"/><circle cx="376" cy="123" r="1" fill="#ffffff" opacity=".16"/><circle cx="459" cy="170" r="2" fill="#14213d" opacity=".16"/><circle cx="106" cy="217" r="3" fill="#ffffff" opacity=".16"/><circle cx="189" cy="264" r="1" fill="#14213d" opacity=".16"/><circle cx="272" cy="69" r="2" fill="#ffffff" opacity=".16"/><rect width="506" height="302" fill="none" stroke="#ffffff" stroke-width="8"/></g>
<text x="600" y="750" text-anchor="middle" font-family="Pretendard,Apple SD Gothic Neo,sans-serif" font-size="30" font-weight="800" fill="#14213d" opacity="1">가로 네컷 · 2×2</text>
</svg>
